<?xml version="1.0" standalone="no"?>
<!DOCTYPE svg PUBLIC "-//W3C//DTD SVG 20010904//EN"
 "http://www.w3.org/TR/2001/REC-SVG-20010904/DTD/svg10.dtd">
<svg version="1.0" xmlns="http://www.w3.org/2000/svg"
 width="128.000000pt" height="128.000000pt" viewBox="0 0 128.000000 128.000000"
 preserveAspectRatio="xMidYMid meet">

<g transform="translate(0.000000,128.000000) scale(0.100000,-0.100000)"
fill="#000000" stroke="none">
<path d="M524 1220 c-74 -29 -128 -81 -166 -157 -64 -130 -36 -269 74 -368
l50 -45 -59 0 c-79 0 -93 -15 -93 -98 0 -53 -3 -62 -18 -62 -10 0 -28 -7 -40
-16 -19 -13 -22 -24 -22 -83 0 -71 16 -101 53 -101 14 0 17 -11 17 -65 l0 -64
-157 -3 -158 -3 0 -55 0 -55 70 0 c56 0 70 3 70 15 0 11 -14 16 -52 18 -45 3
-53 6 -53 22 0 19 13 20 502 22 470 3 503 4 506 20 3 15 -4 18 -42 18 l-46 0
0 64 c0 67 -11 88 -50 101 -17 5 -20 15 -20 66 0 51 3 59 18 59 36 0 52 32 52
103 0 87 -10 97 -102 97 l-71 0 41 30 c97 70 145 213 112 330 -13 48 -36 78
-49 65 -7 -7 -6 -23 4 -50 37 -104 7 -225 -75 -298 -57 -52 -102 -70 -181 -71
-195 -3 -330 198 -254 380 21 50 86 115 140 140 87 41 204 28 283 -32 24 -19
37 -23 45 -15 15 15 -16 47 -78 79 -69 35 -179 40 -251 12z m-54 -670 l0 -60
-50 0 -50 0 0 60 0 60 50 0 50 0 0 -60z m150 0 l0 -60 -55 0 -55 0 0 60 0 60
55 0 55 0 0 -60z m150 0 l0 -60 -55 0 -55 0 0 60 0 60 55 0 55 0 0 -60z m156
35 c3 -14 3 -41 0 -60 -7 -35 -7 -35 -61 -35 l-55 0 0 60 0 60 55 0 c50 0 55
-2 61 -25z m-536 -195 l0 -60 -50 0 -50 0 0 60 0 60 50 0 50 0 0 -60z m150 0
l0 -60 -55 0 -55 0 0 60 0 60 55 0 55 0 0 -60z m150 0 l0 -60 -55 0 -55 0 0
60 0 60 55 0 55 0 0 -60z m155 0 l0 -55 -57 -3 -58 -3 0 61 0 61 58 -3 57 -3
0 -55z m-375 -160 l0 -60 -55 0 -55 0 0 53 c0 30 3 57 7 60 3 4 28 7 55 7 l48
0 0 -60z m150 0 l0 -60 -55 0 -55 0 0 60 0 60 55 0 55 0 0 -60z m150 0 l0 -60
-55 0 -55 0 0 60 0 60 55 0 55 0 0 -60z m148 -2 l3 -58 -56 0 -55 0 0 61 0 60
53 -3 52 -3 3 -57z"/>
<path d="M539 1123 c-62 -32 -106 -88 -116 -147 -5 -33 -3 -38 11 -35 10 2 24
21 31 43 28 81 115 134 197 122 76 -11 128 -60 150 -139 14 -54 1 -110 -37
-155 -78 -93 -241 -78 -295 28 -23 46 -38 57 -46 35 -10 -24 15 -71 56 -109
101 -91 254 -70 331 45 96 142 -15 339 -191 339 -20 0 -61 -12 -91 -27z"/>
<path d="M606 1022 c-14 -21 -26 -45 -26 -53 0 -19 27 -44 58 -54 39 -12 23
-40 -22 -40 -45 0 -57 -18 -24 -36 13 -7 28 -19 34 -27 11 -15 34 -9 34 9 0 5
9 18 20 29 37 37 19 87 -37 104 -13 4 -23 14 -23 23 0 12 7 14 30 10 16 -4 32
-2 35 3 6 10 -33 70 -46 70 -3 0 -18 -17 -33 -38z"/>
<path d="M1105 150 c-13 -21 8 -30 71 -30 57 0 64 -2 64 -20 0 -20 -7 -20
-519 -20 -286 0 -522 -4 -525 -8 -19 -31 12 -32 545 -30 l534 3 0 55 0 55 -82
3 c-49 2 -84 -1 -88 -8z"/>
</g>
</svg>
